<?xml version="1.0" encoding="UTF-8" standalone="no" ?>
<!-- Generator: Adobe Illustrator 22.1.0, SVG Export Plug-In . SVG Version: 6.00 Build 0)  -->

<svg xmlns:dc="http://purl.org/dc/elements/1.1/" xmlns:cc="http://creativecommons.org/ns#" xmlns:rdf="http://www.w3.org/1999/02/22-rdf-syntax-ns#" xmlns:svg="http://www.w3.org/2000/svg" xmlns="http://www.w3.org/2000/svg" xmlns:sodipodi="http://sodipodi.sourceforge.net/DTD/sodipodi-0.dtd" xmlns:inkscape="http://www.inkscape.org/namespaces/inkscape" version="1.1" id="Слой_1" x="0px" y="0px" viewBox="0 0 73 73" style="enable-background:new 0 0 73 73;" xml:space="preserve" sodipodi:docname="checkPayment.svg" inkscape:version="0.92.3 (2405546, 2018-03-11)">
    <metadata id="metadata21">
        <rdf:RDF>
            <cc:Work rdf:about="">
                <dc:format>image/svg+xml</dc:format>
                <dc:type rdf:resource="http://purl.org/dc/dcmitype/StillImage" />
            </cc:Work>
        </rdf:RDF>
    </metadata>
    <defs id="defs19" />
    <sodipodi:namedview pagecolor="#ffffff" bordercolor="#666666" borderopacity="1" objecttolerance="10" gridtolerance="10" guidetolerance="10" inkscape:pageopacity="0" inkscape:pageshadow="2" inkscape:window-width="1920" inkscape:window-height="1017" id="namedview17" showgrid="false" inkscape:zoom="3.2328767" inkscape:cx="36.5" inkscape:cy="36.931513" inkscape:window-x="-8" inkscape:window-y="-8" inkscape:window-maximized="1" inkscape:current-layer="Слой_1" />
    <style type="text/css" id="style2">
	.st0{fill:#FCE21D;}
	.st1{fill:#48423B;}
</style>
    <circle cx="35.942795" cy="36.56144" r="29.756355" id="circle4" style="fill:#48423b;stroke-width:0.75332546" />
    <path d="m 32.256089,45.960704 v -7.154317 c 0,-0.983747 0.804597,-1.788613 1.808063,-1.788613 h 8.13612 v -0.894273 c 0,-0.983747 -0.813585,-1.788613 -1.808064,-1.788613 H 27.73603 c -1.003467,0 -1.808064,0.804866 -1.808064,1.788613 V 48.64359 c 0,0.983747 0.804597,1.788613 1.808064,1.788613 h 12.656178 c 0.994479,0 1.808064,-0.804866 1.808064,-1.788613 v -0.894273 h -8.13612 c -1.003466,0 -1.808063,-0.804865 -1.808063,-1.788613 z m 2.712062,-7.154317 c -0.497206,0 -0.903999,0.402433 -0.903999,0.894273 v 5.365771 c 0,0.491841 0.406793,0.894273 0.903999,0.894273 h 8.136119 v -7.154317 z m 1.355997,3.577159 c 0,0.742287 0.605729,1.341443 1.356065,1.341443 0.750336,0 1.355997,-0.599156 1.355997,-1.341443 0,-0.742288 -0.605661,-1.341443 -1.355997,-1.341443 -0.750336,0 -1.356065,0.599155 -1.356065,1.341443 z" id="path6" inkscape:connector-curvature="0" style="clip-rule:evenodd;fill:#fce21d;fill-rule:evenodd;stroke-width:0.67072141" />
    <path d="m 41.638878,22.968239 v -1.255188 c 0,-0.702581 0.832432,-1.057862 1.318035,-0.560522 l 3.537988,3.623506 c 0.30055,0.307928 0.30055,0.805268 0,1.113129 l -3.537988,3.623506 c -0.485603,0.49734 -1.318035,0.149973 -1.318035,-0.552608 V 27.62593 c -3.854033,0 -6.551808,1.263036 -8.478791,4.026073 0.770793,-3.947129 3.083172,-7.894325 8.478791,-8.683764 z" id="path8" inkscape:connector-curvature="0" style="fill:#fce21d;stroke-width:0.67072141" />

    <g id="g14">
        <animateTransform attributeName="transform" attributeType="XML" type="rotate" from="0 36.56144 36.56144" to="360 36.56144 36.56144" dur="3s" repeatCount="indefinite" />
        <path class="st0" d="M72,37c-0.5,0-1,0.4-1,1c-0.2,5.9-1.9,11.6-5,16.7c-3.3,5.3-7.9,9.7-13.5,12.6S40.8,71.4,34.6,71   c-6-0.4-11.7-2.2-16.7-5.5c-0.4-0.3-1-0.2-1.3,0.2L16,66.6c0,0,0,0,0,0l0,0c0.6,0.4,1.2,0.8,1.9,1.2c5,3,10.7,4.8,16.6,5.1   c6.6,0.4,13.2-1,19.1-4.1c5.9-3.1,10.8-7.6,14.2-13.3c3-5,4.8-10.6,5.2-16.4c0-0.4,0-0.8,0.1-1.3C73,37.4,72.6,37,72,37L72,37z" id="path10" style="fill:#48423b;fill-opacity:1" />
        <path class="st0" d="M1,37c0.5,0,1-0.4,1-1c0.2-6.1,1.9-12,5-17.2c3.3-5.5,7.9-9.9,13.5-12.9C25.9,3,32.2,1.6,38.4,2   c5.9,0.4,11.7,2.3,16.7,5.6c0.4,0.3,1.1,0.2,1.4-0.3L57,6.6c0,0,0,0,0,0l0,0c-0.6-0.4-1.2-0.8-1.9-1.2c-5-3.1-10.7-4.9-16.6-5.3   c-6.6-0.4-13.2,1-19.1,4.2C13.6,7.4,8.7,12.1,5.2,17.9c-3,5.1-4.8,10.9-5.2,16.9C0,35.2,0,35.6,0,36C0,36.6,0.4,37,1,37L1,37z" id="path12" style="fill:#48423b;fill-opacity:1" />
    </g>
</svg>